<?xml version="1.0" encoding="utf-8"?>
<!-- Svg Vector Icons : http://www.onlinewebfonts.com/icon -->
<!DOCTYPE svg PUBLIC "-//W3C//DTD SVG 1.1//EN" "http://www.w3.org/Graphics/SVG/1.1/DTD/svg11.dtd">
<svg version="1.1" xmlns="http://www.w3.org/2000/svg" xmlns:xlink="http://www.w3.org/1999/xlink" x="0px" y="0px" viewBox="0 0 1000 1000" enable-background="new 0 0 1000 1000" xml:space="preserve">
<metadata> Svg Vector Icons : http://www.onlinewebfonts.com/icon </metadata>
<g><g transform="translate(0.000000,511.000000) scale(0.100000,-0.100000)"><path d="M4756.1,4044.1C4526.8,3641.7,2139-492.4,919.5-2602.2C468.3-3382.7,100-4029,100-4036.3c0-7.3,2161-12.2,4804.8-12.2c2643.9,0,4804.8,4.9,4804.8,12.2c0,4.9-290.3,512.2-643.9,1126.8c-356.1,614.6-653.7,1136.6-661,1161c-17.1,39,29.3,41.5,743.9,41.5c456.1,0,756.1,9.8,751.2,22C9878-1619.3,6917,3488,6902.4,3488c-9.8,0-185.4-290.2-390.2-646.3c-204.9-356.1-378-646.3-385.4-646.3c-7.3,2.4-282.9,468.3-609.7,1036.6c-326.8,570.7-602.4,1036.6-612.2,1036.6C4895.1,4268.5,4829.2,4166.1,4756.1,4044.1z M5163.4,3078.3c136.6-236.6,358.5-624.4,495.1-861l246.3-426.8L4917,78.3C4373.1-863.2,3921.9-1651,3914.6-1670.5c-12.2-31.7,217.1-36.6,1997.5-36.6h2012.2l561-968.3l561-970.7l-2070.7-7.3c-1139-2.5-3002.4-2.5-4141.4,0l-2070.7,7.3l1487.8,2573.2c817.1,1414.6,1743.9,3026.8,2063.4,3578c317.1,553.6,582.9,1007.3,590.2,1004.9C4912.2,3510,5029.2,3317.3,5163.4,3078.3z M8087.8,690.5l1153.7-1995.1l-539-7.3c-412.2-4.9-546.3,2.4-568.3,24.4c-43.9,51.2-1765.8,3046.3-1765.8,3078c0,56.1,524.4,939,546.3,917.1C6926.8,2695.4,7453.6,1788,8087.8,690.5z M6917,41.7c424.4-736.6,768.3-1343.9,761-1348.8c-4.9-4.9-707.3-7.3-1561-4.9l-1551.2,7.3L5290.2-48.5c868.3,1504.9,834.1,1446.3,843.9,1436.6C6139,1383.2,6492.6,775.8,6917,41.7z"/></g></g>
</svg>